<svg id="Layer_35" enable-background="new 0 0 64 64" height="512" viewBox="0 0 64 64" width="512" xmlns="http://www.w3.org/2000/svg" xmlns:xlink="http://www.w3.org/1999/xlink"><linearGradient id="SVGID_1_" gradientUnits="userSpaceOnUse" x1="32" x2="32" y1="63" y2="1"><stop offset="0" stop-color="#9f2fff"/><stop offset="1" stop-color="#0bb1d3"/></linearGradient><path d="m29 18c0-1.654 1.346-3 3-3s3 1.346 3 3h-2c0-.551-.448-1-1-1s-1 .449-1 1v4h-2zm6 6v-4h-2v4c0 .551-.448 1-1 1s-1-.449-1-1h-2c0 1.654 1.346 3 3 3s3-1.346 3-3zm4 0h-2c0 2.116-1.34 4.011-3.333 4.716l.666 1.886c2.792-.987 4.667-3.64 4.667-6.602zm0-6c0-3.86-3.141-7-7-7v2c2.757 0 5 2.243 5 5v4h2zm-14 0v6c0 3.86 3.141 7 7 7v-2c-2.757 0-5-2.243-5-5v-6c0-2.116 1.34-4.011 3.333-4.716l-.666-1.886c-2.792.987-4.667 3.64-4.667 6.602zm7 15c-4.963 0-9-4.038-9-9v-4h-2v4c0 6.065 4.935 11 11 11 5.211 0 9.744-3.701 10.78-8.801l-1.961-.398c-.846 4.171-4.555 7.199-8.819 7.199zm7.796-19.5c.788 1.362 1.204 2.918 1.204 4.5v6h2v-6c0-1.933-.509-3.835-1.472-5.501zm-7.796-4.5c2.437 0 4.72.958 6.427 2.7l1.428-1.4c-2.085-2.128-4.876-3.3-7.855-3.3-6.065 0-11 4.935-11 11h2c0-4.962 4.037-9 9-9zm11 40h20v14h-20zm2 12h16v-10h-16zm2-6h12v-2h-12zm0 4h12v-2h-12zm-36-50h-10v2h10zm0 4h-10v2h10zm0 4h-10v2h10zm42.586-16h9.414v2h-8.586l-6.259 6.258c2.407 3.302 3.845 7.353 3.845 11.742 0 6.29-2.984 12.219-8.001 15.99 0 .004.001.007.001.01 0 .462-.113.894-.301 1.285l4.715 4.715h8.77c.414-1.161 1.514-2 2.816-2 1.654 0 3 1.346 3 3s-1.346 3-3 3c-1.302 0-2.402-.839-2.816-2h-9.598l-5.301-5.301c-.391.188-.823.301-1.285.301-.575 0-1.107-.17-1.563-.452-2.365.95-4.86 1.452-7.437 1.452-3.22 0-6.37-.774-9.201-2.243-.465 2.063-1.726 3.824-3.445 4.945 5.593 1.836 9.646 7.099 9.646 13.298v6h-28v-6c0-6.199 4.053-11.462 9.646-13.298-2.191-1.428-3.646-3.897-3.646-6.702 0-3.975 2.918-7.273 6.723-7.888-1.126-2.54-1.723-5.314-1.723-8.112 0-3.33.839-6.6 2.413-9.508-.256-.441-.413-.946-.413-1.492 0-.462.113-.894.301-1.285l-3.715-3.715h-3.77c-.414 1.161-1.514 2-2.816 2-1.654 0-3-1.346-3-3s1.346-3 3-3c1.302 0 2.402.839 2.816 2h4.598l4.301 4.301c.391-.188.823-.301 1.285-.301.232 0 .455.032.671.082 3.755-3.862 8.929-6.082 14.329-6.082 5.917 0 11.226 2.598 14.891 6.695zm-48.586 3c0-.551-.448-1-1-1s-1 .449-1 1 .448 1 1 1 1-.449 1-1zm54 40c0 .551.448 1 1 1s1-.449 1-1-.448-1-1-1-1 .449-1 1zm-43-34c0 .551.448 1 1 1s1-.449 1-1-.448-1-1-1-1 .449-1 1zm2.783 42.803 2.287-2.287.614-3.476c-.351-.236-.717-.45-1.093-.649l-4.258 14.609h.087l3.446-6.031zm-5.116 8.197-4.258-14.609c-.376.199-.742.413-1.092.649l.614 3.476 2.287 2.287-1.083 2.166 3.445 6.031zm-10.667 0h3v-5h2v5h3.277l-3.411-5.969.917-1.834-1.713-1.713-.527-2.988c-2.187 2.175-3.543 5.184-3.543 8.504zm20.457-12.504-.527 2.988-1.713 1.713.917 1.834-3.411 5.969h3.277v-5h2v5h3v-4c0-3.32-1.356-6.329-3.543-8.504zm-8.457-3.496c-1.306 0-2.56.217-3.738.604l3.738 12.823 3.737-12.823c-1.177-.388-2.432-.604-3.737-.604zm6-8c0-3.309-2.691-6-6-6s-6 2.691-6 6 2.691 6 6 6 6-2.691 6-6zm21 0c0-.551-.448-1-1-1s-1 .449-1 1 .448 1 1 1 1-.449 1-1zm8-16c0-9.925-8.075-18-18-18-4.728 0-9.262 1.895-12.617 5.198.382.503.617 1.123.617 1.802 0 1.654-1.346 3-3 3-.362 0-.704-.074-1.026-.192-1.291 2.523-1.974 5.333-1.974 8.192 0 2.8.664 5.571 1.908 8.055 3.843.437 6.86 3.607 7.07 7.514 4.563 2.642 10.243 3.133 15.18 1.348-.094-.291-.158-.595-.158-.917 0-1.654 1.346-3 3-3 .904 0 1.707.411 2.258 1.046 4.24-3.406 6.742-8.577 6.742-14.046zm5-14h8v-2h-8zm0 4h8v-2h-8zm0 4h8v-2h-8z" fill="url(#SVGID_1_)"/></svg>