<svg id="_x33_0" enable-background="new 0 0 64 64" height="512" viewBox="0 0 64 64" width="512" xmlns="http://www.w3.org/2000/svg" xmlns:xlink="http://www.w3.org/1999/xlink"><linearGradient id="SVGID_1_" gradientUnits="userSpaceOnUse" x1="32" x2="32" y1="63" y2="1"><stop offset="0" stop-color="#9f2fff"/><stop offset="1" stop-color="#0bb1d3"/></linearGradient><path d="m8 30c1.999 0 3.8-.847 5.077-2.195.194 1.282.782 2.467 1.716 3.402 1.156 1.156 2.693 1.793 4.328 1.793h.659c-.48.532-.78 1.229-.78 2 0 1.654 1.346 3 3 3 .649 0 1.246-.212 1.737-.563l1.263.884v4.215c0 2.226-1.432 4.15-3.563 4.789l-7.103 2.131c-5.583 1.674-9.334 6.715-9.334 12.544v1h54v-1c0-5.829-3.751-10.87-9.333-12.544l-7.104-2.131c-2.131-.639-3.563-2.564-3.563-4.789v-4.215l1.263-.884c.491.351 1.088.563 1.737.563 1.654 0 3-1.346 3-3 0-.771-.301-1.468-.78-2h.659c1.635 0 3.172-.637 4.328-1.793s1.793-2.693 1.793-4.328v-.261c0-.559-.132-1.118-.382-1.618-.313-.626-.788-1.131-1.358-1.477l.513-3.079c.151-.902.227-1.825.227-2.742 0-2.577-.609-5.156-1.764-7.466-2.849-5.697-8.575-9.236-14.944-9.236h-7.312c-1.491 0-2.97.493-4.164 1.388-1.763 1.322-2.816 3.428-2.816 5.632 0 .553.087 1.096.215 1.631-1.463.747-2.708 1.894-3.556 3.308-1.085 1.808-1.659 3.878-1.659 5.988 0 .169.018.338.025.508-1.219-2.064-3.46-3.455-6.025-3.455-3.86 0-7 3.14-7 7s3.14 7 7 7zm8.207-.207c-.778-.778-1.207-1.814-1.207-2.914v-.261c0-.25.059-.5.171-.724.276-.551.83-.894 1.447-.894h.566c.362 1.015 1.247 1.775 2.336 1.952l.736 4.048h-1.135c-1.1 0-2.136-.429-2.914-1.207zm12.609-14.793h6.369c.173.484.463.908.842 1.241l-3.065 7.663 1.023 5.114c.01.054.015.108.015.162 0 .452-.368.82-.82.82h-2.36c-.452 0-.82-.368-.82-.82 0-.054.005-.108.016-.161l1.023-5.115-3.066-7.663c.379-.333.67-.756.843-1.241zm12.704 17.048c-.516.084-.983.3-1.376.613l-4.277-2.673c.079-.258.133-.525.133-.808 0-.185-.018-.37-.055-.553l-.725-3.627h5.964c.241.676.714 1.236 1.328 1.59zm-7.783 7.515c-.225-.161-.473-.285-.737-.379v-7.184h.18c.537 0 1.033-.159 1.461-.42l4.434 2.771c-.046.21-.075.426-.075.649 0 .277.05.54.12.795zm-3.474 0-5.383-3.768c.07-.255.12-.518.12-.795 0-.223-.029-.439-.075-.649l4.434-2.771c.427.261.924.42 1.461.42h.18v7.184c-.264.095-.513.219-.737.379zm-7.783-7.515-.992-5.459c.614-.354 1.087-.913 1.328-1.59h5.964l-.726 3.628c-.036.183-.054.368-.054.553 0 .283.054.55.132.808l-4.277 2.673c-.392-.312-.859-.529-1.375-.613zm10.52 9.952c0 .551-.449 1-1 1s-1-.449-1-1 .449-1 1-1 1 .449 1 1zm11-17c-.551 0-1-.449-1-1s.449-1 1-1 1 .449 1 1-.449 1-1 1zm-2.816-2h-5.707l2.405-6.012c.04.002.078.012.118.012.205 0 .404-.021.598-.06l3.098 5.163c-.22.266-.394.566-.512.897zm-3.184-8c-.551 0-1-.449-1-1s.449-1 1-1 1 .449 1 1-.449 1-1 1zm-12 0c-.551 0-1-.449-1-1s.449-1 1-1 1 .449 1 1-.449 1-1 1zm-.598 1.94c.194.039.393.06.598.06.04 0 .078-.01.118-.012l2.405 6.012h-5.707c-.118-.331-.292-.631-.511-.897zm-4.402 7.06c0 .551-.449 1-1 1s-1-.449-1-1 .449-1 1-1 1 .449 1 1zm1 12c-.551 0-1-.449-1-1s.449-1 1-1 1 .449 1 1-.449 1-1 1zm19.988 13.241 7.104 2.131c4.408 1.322 7.468 5.121 7.864 9.628h-49.912c.396-4.507 3.457-8.306 7.864-9.628l7.103-2.131c2.984-.895 4.989-3.59 4.989-6.705v-2.815l2.12 1.484c-.07.255-.12.518-.12.795 0 1.654 1.346 3 3 3s3-1.346 3-3c0-.277-.05-.54-.12-.795l2.12-1.484v2.815c0 3.115 2.005 5.81 4.988 6.705zm.012-13.241c-.551 0-1-.449-1-1s.449-1 1-1 1 .449 1 1-.449 1-1 1zm7-9.121c0 1.101-.429 2.136-1.207 2.914s-1.814 1.207-2.914 1.207h-1.135l.736-4.048c1.089-.177 1.974-.937 2.336-1.952h.566c.617 0 1.171.343 1.447.895.112.223.171.473.171.723zm-25.984-22.891c.85-.637 1.902-.988 2.964-.988h7.312c5.606 0 10.647 3.115 13.158 8.136 1.014 2.028 1.55 4.298 1.55 6.566 0 .807-.067 1.619-.2 2.414l-.481 2.884h-.504c-.414-1.161-1.514-2-2.816-2-.205 0-.404.021-.597.06l-3.098-5.163c.428-.518.696-1.174.696-1.897 0-1.654-1.346-3-3-3-1.302 0-2.402.839-2.816 2h-6.369c-.414-1.161-1.514-2-2.816-2-1.079 0-2.018.577-2.547 1.434l-.083-.055c-.986-.658-1.736-1.64-2.111-2.766-.171-.514-.258-1.05-.258-1.593 0-1.578.753-3.085 2.016-4.032zm-5.642 10c.621-1.036 1.523-1.876 2.577-2.454.566.998 1.351 1.869 2.31 2.509l.797.531c.097.499.326.946.637 1.323l-3.098 5.163c-.193-.039-.392-.06-.597-.06-1.302 0-2.402.839-2.816 2h-.564l-.433-2.163c-.124-.622-.187-1.257-.187-1.89 0-1.747.475-3.462 1.374-4.959zm-4.475 8.012h-3.899v-3.899c1.956.399 3.5 1.943 3.899 3.899zm-5.899-3.899v5.899h5.899c-.465 2.279-2.484 4-4.899 4-2.757 0-5-2.243-5-5 0-2.414 1.721-4.434 4-4.899zm-2 17.899v8h12v2h-14v-10zm-2-33h12v2h-10v8h-2zm46 41h10v-8h2v10h-12zm10-31v-8h-10v-2h12v10zm-6 8h10v2h-10zm0 4h10v2h-10zm0 4h2v2h-2zm6 2h-2v-2h2zm2-2h2v2h-2zm-8-10v-2h2v2zm4 0v-2h2v2zm4-2h2v2h-2zm-54 19h10v2h-10zm2-4v2h-2v-2zm4 0v2h-2v-2zm-6 8h4v2h-4zm6 2v-2h4v2z" fill="url(#SVGID_1_)"/></svg>