<svg id="_x33_0" enable-background="new 0 0 64 64" height="512" viewBox="0 0 64 64" width="512" xmlns="http://www.w3.org/2000/svg" xmlns:xlink="http://www.w3.org/1999/xlink"><linearGradient id="SVGID_1_" gradientUnits="userSpaceOnUse" x1="32" x2="32" y1="63" y2="1"><stop offset="0" stop-color="#9f2fff"/><stop offset="1" stop-color="#0bb1d3"/></linearGradient><path d="m21 25c-1.103 0-2 .897-2 2h-2c0-2.206 1.794-4 4-4s4 1.794 4 4h-2c0-1.103-.897-2-2-2zm10 0c1.103 0 2 .897 2 2h2c0-2.206-1.794-4-4-4s-4 1.794-4 4h2c0-1.103.897-2 2-2zm-5 14c2.226 0 4.194-1.418 4.898-3.53l.051-.154-1.898-.631-.051.153c-.431 1.293-1.637 2.162-3 2.162s-2.569-.869-3-2.161l-.051-.154-1.898.631.052.155c.703 2.111 2.671 3.529 4.897 3.529zm-1-6h2v-4h-2zm-1.555-19.168 1.109-1.664c-1.599-1.066-2.554-2.851-2.554-4.773v-2.395h-2v2.395c0 2.592 1.288 4.999 3.445 6.437zm6 0 1.109-1.664c-1.599-1.066-2.554-2.851-2.554-4.773v-2.395h-2v2.395c0 2.592 1.288 4.999 3.445 6.437zm14.015 23.168h19.54v22h-18v4h-38v-5.376c0-4.909 3.514-9.057 8.356-9.863l3.774-.63.651-3.908c-.564-.287-1.115-.6-1.632-.962-.036-.025-.069-.053-.104-.079-.536.504-1.253.818-2.045.818-1.654 0-3-1.346-3-3 0-.352.072-.686.184-1h-.184c-3.309 0-6-2.691-6-6v-1.384c-2.472-1.307-4-3.84-4-6.654 0-1.508.42-2.895 1.215-4.087l.428-.643-.662-.497c-1.866-1.399-2.981-3.628-2.981-5.962 0-1.363.354-2.639 1.022-3.754l1.625-2.708c2.335-3.893 6.607-6.311 11.147-6.311h22.411c4.541 0 8.812 2.418 11.147 6.312l1.625 2.707c.669 1.115 1.023 2.392 1.023 3.691 0 2.397-1.115 4.626-2.981 6.026l-.662.497.428.643c.795 1.191 1.215 2.578 1.215 4.011 0 2.887-1.528 5.421-4 6.729v1.384c0 1.538-.586 2.937-1.54 4zm-2.46 1.65c-.627.222-1.298.35-2 .35h-.184c.112.314.184.648.184 1 0 1.654-1.346 3-3 3-.792 0-1.509-.315-2.046-.818-.035.025-.068.053-.103.078-.518.363-1.069.675-1.633.963l.651 3.908 3.775.63c1.595.265 3.083.917 4.356 1.873zm-20.782 10.577.546 3.273 3-1.5zm8.018 1.773 3 1.5.546-3.273zm5.764-20c-.551 0-1 .449-1 1s.449 1 1 1 1-.449 1-1-.449-1-1-1zm1.655 3.498.632 2.531h.003c1.745-2.477 2.71-5.467 2.71-8.5v-1.529l-2.505 3.34c.318.475.505 1.046.505 1.66 0 1.042-.535 1.96-1.345 2.498zm3.345-10.498c0 .551.449 1 1 1s1-.449 1-1-.449-1-1-1-1 .449-1 1zm-4 16c0 .552.449 1 1 1s1-.448 1-1-.449-1-1-1-1 .448-1 1zm-22-3h.316c-1.495-2.559-2.316-5.497-2.316-8.471v-1.713c-1.161-.414-2-1.514-2-2.816 0-1.316.858-2.425 2.04-2.828.194-2.473 1.492-4.728 3.577-6.118l.484-.323c-.06-.235-.101-.478-.101-.731 0-1.654 1.346-3 3-3s3 1.346 3 3c0 .311-.061.606-.149.888l3.489 2.616c.475-.317 1.046-.504 1.66-.504s1.185.187 1.661.505l3.489-2.616c-.089-.283-.15-.578-.15-.889 0-1.654 1.346-3 3-3s3 1.346 3 3c0 .318-.063.619-.155.907l.26.158c2.164 1.318 3.578 3.606 3.841 6.102 1.189.399 2.054 1.511 2.054 2.833 0 1.302-.839 2.402-2 2.816v1.713c0 2.974-.821 5.912-2.316 8.471h.316c2.206 0 4-1.794 4-4v-2.618l.948-.475c1.883-.941 3.052-2.835 3.052-4.945 0-1.111-.304-2.115-.879-2.978l-1.478-2.217 2.175-1.631c1.367-1.025 2.182-2.656 2.182-4.363 0-1.001-.255-1.921-.737-2.726l-1.625-2.707c-1.976-3.294-5.591-5.34-9.432-5.34h-22.412c-3.842 0-7.457 2.046-9.433 5.341l-1.625 2.707c-.481.804-.736 1.724-.736 2.662 0 1.771.815 3.401 2.182 4.426l2.175 1.631-1.478 2.217c-.575.863-.879 1.867-.879 2.903 0 2.185 1.169 4.08 3.051 5.021l.949.474v2.618c0 2.206 1.794 4 4 4zm21-24c-.551 0-1 .449-1 1s.449 1 1 1 1-.449 1-1-.449-1-1-1zm-9 7c0 .551.449 1 1 1s1-.449 1-1-.449-1-1-1-1 .449-1 1zm-6-6c0-.551-.449-1-1-1s-1 .449-1 1 .449 1 1 1 1-.449 1-1zm0 18c0-.551-.449-1-1-1s-1 .449-1 1 .449 1 1 1 1-.449 1-1zm-4 0c0-.614.187-1.185.505-1.661l-2.505-3.339v1.529c0 3.033.965 6.023 2.709 8.501h.003l.633-2.531c-.81-.539-1.345-1.457-1.345-2.499zm-4-8c0 .551.449 1 1 1s1-.449 1-1-.449-1-1-1-1 .449-1 1zm6 16c0-.552-.449-1-1-1s-1 .448-1 1 .449 1 1 1 1-.448 1-1zm2.297.623c1.245.871 2.672 1.479 4.156 1.811.529-.857 1.468-1.434 2.547-1.434s2.018.577 2.547 1.434c1.484-.333 2.91-.94 4.156-1.812.114-.08.222-.168.334-.252-.015-.122-.037-.243-.037-.37 0-1.042.535-1.96 1.345-2.498l-.632-2.531c-1.519-.148-2.713-1.415-2.713-2.971 0-1.654 1.346-3 3-3 .311 0 .606.061.888.149l2.616-3.489c-.317-.475-.504-1.046-.504-1.66 0-1.282.812-2.37 1.946-2.799-.243-1.815-1.301-3.464-2.883-4.428l-.43-.263c-.471.308-1.03.49-1.633.49-.614 0-1.185-.187-1.661-.505l-3.489 2.616c.089.283.15.578.15.889 0 1.654-1.346 3-3 3s-3-1.346-3-3c0-.311.061-.606.149-.888l-3.489-2.616c-.475.317-1.046.504-1.66.504-.673 0-1.288-.231-1.789-.606l-.486.324c-1.534 1.023-2.505 2.667-2.688 4.478 1.143.424 1.963 1.516 1.963 2.804 0 .614-.187 1.185-.505 1.661l2.616 3.489c.283-.089.578-.15.889-.15 1.654 0 3 1.346 3 3 0 1.556-1.195 2.824-2.712 2.971l-.633 2.531c.809.537 1.345 1.456 1.345 2.498 0 .127-.022.248-.037.371.112.083.219.171.334.252zm6.703 2.377c-.551 0-1 .448-1 1s.449 1 1 1 1-.448 1-1-.449-1-1-1zm-4.321 1.01-.571 3.426 4.892 2.446 4.892-2.446-.571-3.426c-.448.15-.9.275-1.361.378-.192 1.47-1.439 2.612-2.96 2.612-1.522 0-2.768-1.143-2.961-2.612-.46-.103-.913-.229-1.36-.378zm21.321 14.99h-2v-6.654c-1.216-1.383-2.863-2.31-4.685-2.612l-2.521-.42-1.03 6.186-6.764-3.382-6.764 3.382-1.031-6.187-2.52.42c-3.873.646-6.685 3.964-6.685 7.891v3.376h4v-4h2v4h22v-4h2v4h4zm9-10c1.302 0 2.402-.839 2.816-2h-5.631c.413 1.161 1.513 2 2.815 2zm2.816-4c-.414-1.161-1.514-2-2.816-2s-2.402.839-2.816 2zm2.184 11c0-1.528-.704-2.881-1.787-3.799l-2.213 2.213v2.586h4zm-6.371-4.785 1.371 1.371 1.371-1.371c-.439-.126-.893-.215-1.371-.215s-.932.089-1.371.215zm-3.629 4.785v1h4v-2.586l-2.213-2.213c-1.083.918-1.787 2.271-1.787 3.799zm14-17h-18v18h2v-1c0-2.698 1.537-5.04 3.779-6.208-1.079-.918-1.779-2.268-1.779-3.792 0-2.757 2.243-5 5-5s5 2.243 5 5c0 1.524-.7 2.874-1.779 3.792 2.242 1.168 3.779 3.51 3.779 6.208v1h2zm-50 2h-10v2h10zm0 4h-10v2h10zm-8 4h-2v2h2zm4 2v-2h-2v2zm48-40h-2v2h2zm4 0h-2v2h2zm2 2h2v-2h-2zm0 6h-2v12h-2v-8h-2v8h-2v-4h-2v4h-1.535l-2.297 3.445 1.664 1.109 1.703-2.554h12.465v-2h-2z" fill="url(#SVGID_1_)"/></svg>