<svg id="Layer_1" height="512" viewBox="0 0 512 512" width="512" xmlns="http://www.w3.org/2000/svg" xmlns:xlink="http://www.w3.org/1999/xlink" data-name="Layer 1"><linearGradient id="linear-gradient" gradientUnits="userSpaceOnUse" x1="257.68" x2="257.68" y1="436" y2="89.267"><stop offset=".322" stop-color="#a163f5"/><stop offset=".466" stop-color="#b074ee"/><stop offset=".752" stop-color="#d8a1dd"/><stop offset=".898" stop-color="#efbad3"/></linearGradient><linearGradient id="linear-gradient-2" x1="257.675" x2="257.675" xlink:href="#linear-gradient" y1="436" y2="89.267"/><linearGradient id="linear-gradient-3" x1="258" x2="258" xlink:href="#linear-gradient" y1="436" y2="89.267"/><linearGradient id="linear-gradient-4" x1="167" x2="167" xlink:href="#linear-gradient" y1="436" y2="89.267"/><linearGradient id="linear-gradient-6" x1="256" x2="256" xlink:href="#linear-gradient" y1="436" y2="89.267"/><path d="m257.68 111.73a29.075 29.075 0 0 0 27.646-19.964 6 6 0 1 0 -11.392-3.772 17.124 17.124 0 0 1 -32.508 0 6 6 0 0 0 -11.392 3.772 29.074 29.074 0 0 0 27.646 19.964z" fill="url(#linear-gradient)"/><path d="m299.38 92.1a6 6 0 0 0 -7.813 3.312 36.555 36.555 0 0 1 -67.786 0 6 6 0 0 0 -11.122 4.506 48.555 48.555 0 0 0 90.033 0 6 6 0 0 0 -3.312-7.818z" fill="url(#linear-gradient-2)"/><path d="m232 59h52a6 6 0 0 0 6-6v-24a6 6 0 0 0 -6-6h-52a6 6 0 0 0 -6 6v24a6 6 0 0 0 6 6zm6-24h40v12h-40z" fill="url(#linear-gradient-3)"/><path d="m167 119.84a6 6 0 0 0 -6 6v3.6a6 6 0 0 0 12 0v-3.6a6 6 0 0 0 -6-6z" fill="url(#linear-gradient-4)"/><path d="m167 143.52a6 6 0 0 0 -6 6v109.51a6 6 0 0 0 12 0v-109.51a6 6 0 0 0 -6-6z" fill="url(#linear-gradient-4)"/><path d="m427.54 466h-20.54v-455.91c0-3.314-2.187-6.09-5.5-6.09h-291c-3.313 0-6.5 2.776-6.5 6.09v455.91h-19.54c-3.314 0-6.46 2.586-6.46 5.9v30.01c0 3.314 3.146 6.09 6.46 6.09h343.08c3.314 0 6.46-2.776 6.46-6.09v-30.01c0-3.314-3.146-5.9-6.46-5.9zm-311.54-450h279v450h-19v-393.1a5.89 5.89 0 0 0 -5.97-5.9h-228.06a5.89 5.89 0 0 0 -5.97 5.9v393.1h-20zm114.686 309-2.547-42.218a6.047 6.047 0 0 0 -6.351-5.684 5.767 5.767 0 0 0 -5.627 6.088l3.755 61.814h-.956a8.616 8.616 0 0 1 -8.96-8.72v-66.14a18.042 18.042 0 0 1 18.38-18.14h13.209l-3.029 37.338a5.665 5.665 0 0 0 .966 3.662l11.46 17.382a6.008 6.008 0 0 0 10.029-.043l11.46-17.447a5.362 5.362 0 0 0 .965-3.551l-3.027-37.341h13.207a18.042 18.042 0 0 1 18.38 18.14v66.14a8.616 8.616 0 0 1 -8.96 8.72h-.382l3.751-61.844a5.9 5.9 0 0 0 -5.628-6.233 6.142 6.142 0 0 0 -6.35 5.8l-2.544 42.277zm50.476 12-6.291 104h-12.871v-104zm-31.162 0v104h-12.29l-6.3-104zm-14.487-140.52a6.1 6.1 0 0 0 2.828-4.651l.593-7.409a33.171 33.171 0 0 0 28.131-11.12 5.717 5.717 0 0 1 4.492 3.066l4.263 17.534a6 6 0 0 0 3.348 4.044 6.053 6.053 0 0 0 -1.158 3.529 22.1 22.1 0 0 1 -32.724 19.371 22.383 22.383 0 0 1 -5-3.758 21.935 21.935 0 0 1 -6.469-15.663 5.973 5.973 0 0 0 -1.549-4 5.96 5.96 0 0 0 3.245-.943zm-2.851-24.319a23.746 23.746 0 0 1 23.258-19.011 23.494 23.494 0 0 1 17.349 7.538 24.059 24.059 0 0 1 2.559 3.261 17.654 17.654 0 0 0 -8.547-2.663l-2.739-.12a6.019 6.019 0 0 0 -5.15 2.515 21.182 21.182 0 0 1 -19.518 8.773l-4.6-.489a7.4 7.4 0 0 0 -.785-.043 7.086 7.086 0 0 0 -1.827.239zm15.338 67.839v-5.344a37.613 37.613 0 0 0 7.745.9 31.739 31.739 0 0 0 7.255-.8v5.244zm13.313 48.248-5.313 7.971-5.314-7.914 2.939-36.305h4.747zm30.62 68.752h1.107a20.621 20.621 0 0 0 20.96-20.72v-66.14a30.053 30.053 0 0 0 -30.38-30.14h-8.62v-10.419a24.112 24.112 0 0 0 4.934-4 33.832 33.832 0 0 0 9.8-20.082 13.59 13.59 0 0 0 3.063-2.636 13.222 13.222 0 0 0 3.106-8.479 12.835 12.835 0 0 0 -.372-3.12 11.274 11.274 0 0 0 -4.345-6.533l.372-5.4a35.719 35.719 0 1 0 -71.354-2.5c0 .889.028 1.712.084 2.5l.375 5.426a11.444 11.444 0 0 0 -4.388 6.543 13.4 13.4 0 0 0 -.361 3.088 13.12 13.12 0 0 0 6.146 11.142 33.662 33.662 0 0 0 9.661 20.051c1.345 1.345 3.283 2.561 4.283 3.669v10.75h-7.62a30.053 30.053 0 0 0 -30.384 30.14v66.14a20.621 20.621 0 0 0 20.96 20.72h1.681l5.067 84h-77.708v-362h216v362h-77.128zm130.067 139h-332v-18h73.425a6 6 0 0 0 0-12h-15.425v-13h216v13h-173.966a6 6 0 0 0 0 12h231.966z" fill="url(#linear-gradient-6)"/></svg>