<svg id="Layer_3" enable-background="new 0 0 64 64" height="512" viewBox="0 0 64 64" width="512" xmlns="http://www.w3.org/2000/svg"><g><path d="m30.706 33.292-7.998-7.998c-.181-.182-.431-.294-.708-.294h-20c-.552 0-1 .447-1 1v36c0 .553.448 1 1 1h28c.552 0 1-.447 1-1v-28c0-.277-.112-.527-.294-.708zm-7.706-4.878 4.586 4.586h-4.586zm6 32.586h-26v-34h18v7c0 .553.448 1 1 1h7z"/><path d="m13.4 41.2-8 6c-.344.258-.485.708-.349 1.116s.518.684.949.684h1v8h-2v2h18v-2h-2v-8h1c.431 0 .812-.275.949-.684s-.005-.858-.349-1.116l-8-6c-.355-.267-.845-.267-1.2 0zm-4.4 7.8h2v8h-2zm6 0v8h-2v-8zm4 8h-2v-8h2zm-10-10 5-3.75 5 3.75z"/><path d="m5 29h2v2h-2z"/><path d="m9 29h10v2h-10z"/><path d="m5 37h2v2h-2z"/><path d="m9 37h10v2h-10z"/><path d="m17 33h2v2h-2z"/><path d="m5 33h10v2h-10z"/><path d="m62.706 9.292-7.998-7.998c-.181-.182-.431-.294-.708-.294h-20c-.552 0-1 .447-1 1v36c0 .553.448 1 1 1h28c.552 0 1-.447 1-1v-28c0-.277-.112-.527-.294-.708zm-7.706-4.878 4.586 4.586h-4.586zm6 32.586h-26v-34h18v7c0 .553.448 1 1 1h7z"/><path d="m45.4 17.2-8 6c-.344.258-.485.708-.349 1.116s.518.684.949.684h1v8h-2v2h18v-2h-2v-8h1c.431 0 .812-.275.949-.684s-.005-.858-.349-1.116l-8-6c-.355-.267-.845-.267-1.2 0zm-4.4 7.8h2v8h-2zm6 0v8h-2v-8zm4 8h-2v-8h2zm-10-10 5-3.75 5 3.75z"/><path d="m37 5h2v2h-2z"/><path d="m41 5h10v2h-10z"/><path d="m37 13h2v2h-2z"/><path d="m41 13h10v2h-10z"/><path d="m49 9h2v2h-2z"/><path d="m37 9h10v2h-10z"/><path d="m56.707 41.293c-.391-.391-1.023-.391-1.414 0l-6 6c-.286.286-.372.716-.217 1.09s.52.617.924.617h3v8h-8v2h9c.552 0 1-.447 1-1v-10c0-.553-.448-1-1-1h-1.586l3.586-3.586 3.586 3.586h-1.586c-.552 0-1 .447-1 1v13h-24v2h25c.552 0 1-.447 1-1v-13h3c.404 0 .769-.243.924-.617s.069-.804-.217-1.09z"/><path d="m41 57h2v2h-2z"/><path d="m37 57h2v2h-2z"/><path d="m5 2v13h-3c-.404 0-.769.243-.924.617s-.069.804.217 1.09l6 6c.195.195.451.293.707.293s.512-.098.707-.293l6-6c.286-.286.372-.716.217-1.09s-.52-.617-.924-.617h-3v-8h8v-2h-9c-.552 0-1 .447-1 1v10c0 .553.448 1 1 1h1.586l-3.586 3.586-3.586-3.586h1.586c.552 0 1-.447 1-1v-13h24v-2h-25c-.552 0-1 .447-1 1z"/><path d="m21 5h2v2h-2z"/><path d="m25 5h2v2h-2z"/></g></svg>