<svg id="_x33_0" enable-background="new 0 0 64 64" height="512" viewBox="0 0 64 64" width="512" xmlns="http://www.w3.org/2000/svg"><g><path d="m33 33v-7c0-1.654-1.346-3-3-3s-3 1.346-3 3v3h2v-3c0-.551.449-1 1-1s1 .449 1 1v7z"/><path d="m41 34v-8c0-6.065-4.935-11-11-11-1.126 0-2.237.169-3.3.504l.601 1.908c.868-.273 1.776-.412 2.699-.412 4.962 0 9 4.038 9 9v8c0 3.859-3.14 7-7 7s-7-3.141-7-7v-8c0-2.757 2.243-5 5-5s5 2.243 5 5v1h2v-1c0-3.86-3.14-7-7-7s-7 3.14-7 7v8c0 4.963 4.038 9 9 9s9-4.037 9-9z"/><path d="m27 34c0 2.757 2.243 5 5 5s5-2.243 5-5v-3h-2v3c0 1.654-1.346 3-3 3s-3-1.346-3-3v-3h-2z"/><path d="m60 49c-1.302 0-2.402.839-2.816 2h-3.77l-2-2h-10.522v.003l-3.064-.817-.585-2.338c.292-.132.589-.252.87-.406.255-.139.502-.29.748-.441h12.324c.414 1.161 1.514 2 2.816 2 1.654 0 3-1.346 3-3s-1.346-3-3-3c-1.302 0-2.402.839-2.816 2h-9.68c1.27-1.171 2.35-2.519 3.205-4h6.705l2-2h3.77c.414 1.161 1.514 2 2.816 2 1.654 0 3-1.346 3-3s-1.346-3-3-3c-1.302 0-2.402.839-2.816 2h-4.598l-2 2h-4.889c.27-.65.503-1.317.691-2h.611c3.309 0 6-2.691 6-6 0-1.354-.456-2.6-1.216-3.606l.536-1.875c.451-1.58.68-3.212.68-4.854 0-9.741-7.925-17.666-17.666-17.666h-1.172-5.496c-9.741 0-17.666 7.925-17.666 17.666 0 1.642.229 3.274.68 4.853l.536 1.875c-.76 1.006-1.216 2.252-1.216 3.606 0 3.309 2.691 6 6 6h.612c.188.683.422 1.35.691 2h-4.89l-2-2h-4.597c-.414-1.161-1.514-2-2.816-2-1.654 0-3 1.346-3 3s1.346 3 3 3c1.302 0 2.402-.839 2.816-2h3.77l2 2h6.706c.856 1.481 1.935 2.829 3.205 4h-9.681c-.414-1.161-1.514-2-2.816-2-1.654 0-3 1.346-3 3s1.346 3 3 3c1.302 0 2.402-.839 2.816-2h12.324c.247.151.493.303.749.442.281.153.577.274.869.405l-.585 2.338-3.064.817v-.002h-10.523l-2 2h-3.77c-.414-1.161-1.514-2-2.816-2-1.654 0-3 1.346-3 3s1.346 3 3 3c1.302 0 2.402-.839 2.816-2h4.598l2-2h3.38c-3.503 1.885-5.794 5.575-5.794 9.683v2.317h42v-2.317c0-4.108-2.291-7.797-5.794-9.683h3.38l2 2h4.598c.414 1.161 1.514 2 2.816 2 1.654 0 3-1.346 3-3s-1.346-3-3-3zm-6-6c.551 0 1 .448 1 1s-.449 1-1 1-1-.448-1-1 .449-1 1-1zm6-8c.551 0 1 .448 1 1s-.449 1-1 1-1-.448-1-1 .449-1 1-1zm-56 2c-.551 0-1-.448-1-1s.449-1 1-1 1 .448 1 1-.449 1-1 1zm6 8c-.551 0-1-.448-1-1s.449-1 1-1 1 .448 1 1-.449 1-1 1zm-6 8c-.551 0-1-.448-1-1s.449-1 1-1 1 .448 1 1-.449 1-1 1zm33.835-2.742-.627 5.013-3.516-2.344 3.538-2.83zm9.165-17.258h-.194c.124-.83.194-1.674.194-2.529v-5.471c2.206 0 4 1.794 4 4s-1.794 4-4 4zm-18.334-30h1.322c-.4.494-.727 1.055-.937 1.684l1.897.633c.463-1.386 1.754-2.317 3.214-2.317h1.172c8.638 0 15.666 7.028 15.666 15.666 0 1.456-.203 2.904-.603 4.303l-.264.924c-.913-.563-1.984-.893-3.133-.893-.001-5.644-4.235-10.346-9.849-10.937l-5.074-.534c-2.324-.245-4.077-2.192-4.077-4.529h-2c0 1.157.298 2.248.826 3.195-5.614.599-9.826 5.27-9.826 10.937v1.868c-1.149 0-2.22.33-3.134.893l-.264-.924c-.399-1.399-.602-2.847-.602-4.303 0-8.638 7.028-15.666 15.666-15.666zm-11.666 30c-2.206 0-4-1.794-4-4s1.794-4 4-4v5.47c0 .855.07 1.699.194 2.53zm2-2.53v-9.338c0-4.686 3.519-8.539 8.186-8.963l1.196-.109c.962.792 2.16 1.318 3.487 1.458l5.074.534c4.593.484 8.057 4.331 8.057 8.95v7.468c0 5.513-3.006 10.576-7.846 13.215-3.153 1.722-7.157 1.721-10.309 0-4.839-2.639-7.845-7.704-7.845-13.215zm13 16.53c1.135 0 2.262-.164 3.354-.462l.521 2.081-3.875 3.1-3.874-3.099.52-2.081c1.092.297 2.219.461 3.354.461zm-5.231 3.096 3.538 2.83-3.516 2.344-.627-5.013zm24.231 10.587v.317h-38v-.317c0-4.071 2.747-7.647 6.681-8.696l4.533-1.209.994 7.952 6.792-4.528 6.792 4.528.994-7.952 4.533 1.209c3.934 1.048 6.681 4.624 6.681 8.696zm9-7.683c-.551 0-1-.448-1-1s.449-1 1-1 1 .448 1 1-.449 1-1 1z"/></g></svg>